<?xml version="1.0" encoding="UTF-8"?>
<svg xmlns="http://www.w3.org/2000/svg" xmlns:xlink="http://www.w3.org/1999/xlink"
     width="1531" height="480" viewBox="0 0 1531 480">
<defs>
</defs>
<style>@media (prefers-color-scheme: dark) {
    .nf-metro-section-label { fill: #d0d0d0; }
    .nf-metro-section-num-circle { fill: #777777; }
    .nf-metro-title { fill: #ffffff; }
}
</style>
<text x="60.0" y="30.0" font-size="26.0" fill="#111111" font-family="'Helvetica Neue', Helvetica, Arial, sans-serif" font-weight="bold" class="nf-metro-title">sanger-tol/genomeassembly</text>
<rect x="22.0" y="85.0" width="204.0" height="111.0" rx="8" ry="8" fill="#ededed" stroke="#e6e6e6" stroke-width="1.0" />
<circle cx="33.0" cy="70.0" r="11" fill="#333333" class="nf-metro-section-num-circle" />
<text x="33.0" y="70.0" font-size="12" fill="#ffffff" font-family="'Helvetica Neue', Helvetica, Arial, sans-serif" font-weight="bold" text-anchor="middle" dy="0.3em">1</text>
<text x="49.0" y="70.0" font-size="17.0" fill="#666666" font-family="'Helvetica Neue', Helvetica, Arial, sans-serif" font-weight="bold" dy="0.3em" class="nf-metro-section-label">Raw assembly</text>
<rect x="284.0" y="85.0" width="160.0" height="70.0" rx="8" ry="8" fill="#ededed" stroke="#e6e6e6" stroke-width="1.0" />
<circle cx="295.0" cy="70.0" r="11" fill="#333333" class="nf-metro-section-num-circle" />
<text x="295.0" y="70.0" font-size="12" fill="#ffffff" font-family="'Helvetica Neue', Helvetica, Arial, sans-serif" font-weight="bold" text-anchor="middle" dy="0.3em">2</text>
<text x="311.0" y="70.0" font-size="17.0" fill="#666666" font-family="'Helvetica Neue', Helvetica, Arial, sans-serif" font-weight="bold" dy="0.3em" class="nf-metro-section-label">Purging</text>
<rect x="566.0" y="85.0" width="273.0" height="111.0" rx="8" ry="8" fill="#ededed" stroke="#e6e6e6" stroke-width="1.0" />
<circle cx="577.0" cy="70.0" r="11" fill="#333333" class="nf-metro-section-num-circle" />
<text x="577.0" y="70.0" font-size="12" fill="#ffffff" font-family="'Helvetica Neue', Helvetica, Arial, sans-serif" font-weight="bold" text-anchor="middle" dy="0.3em">4</text>
<text x="593.0" y="70.0" font-size="17.0" fill="#666666" font-family="'Helvetica Neue', Helvetica, Arial, sans-serif" font-weight="bold" dy="0.3em" class="nf-metro-section-label">Polishing</text>
<rect x="897.0" y="85.0" width="328.0" height="152.0" rx="8" ry="8" fill="#ededed" stroke="#e6e6e6" stroke-width="1.0" />
<circle cx="908.0" cy="70.0" r="11" fill="#333333" class="nf-metro-section-num-circle" />
<text x="908.0" y="70.0" font-size="12" fill="#ffffff" font-family="'Helvetica Neue', Helvetica, Arial, sans-serif" font-weight="bold" text-anchor="middle" dy="0.3em">5</text>
<text x="924.0" y="70.0" font-size="17.0" fill="#666666" font-family="'Helvetica Neue', Helvetica, Arial, sans-serif" font-weight="bold" dy="0.3em" class="nf-metro-section-label">Scaffolding</text>
<rect x="1275.0" y="85.0" width="196.0" height="152.0" rx="8" ry="8" fill="#ededed" stroke="#e6e6e6" stroke-width="1.0" />
<circle cx="1286.0" cy="70.0" r="11" fill="#333333" class="nf-metro-section-num-circle" />
<text x="1286.0" y="70.0" font-size="12" fill="#ffffff" font-family="'Helvetica Neue', Helvetica, Arial, sans-serif" font-weight="bold" text-anchor="middle" dy="0.3em">6</text>
<text x="1302.0" y="70.0" font-size="17.0" fill="#666666" font-family="'Helvetica Neue', Helvetica, Arial, sans-serif" font-weight="bold" dy="0.3em" class="nf-metro-section-label">Genome QC</text>
<rect x="276.0" y="346.0" width="240.0" height="110.0" rx="8" ry="8" fill="#ededed" stroke="#e6e6e6" stroke-width="1.0" />
<circle cx="287.0" cy="331.0" r="11" fill="#333333" class="nf-metro-section-num-circle" />
<text x="287.0" y="331.0" font-size="12" fill="#ffffff" font-family="'Helvetica Neue', Helvetica, Arial, sans-serif" font-weight="bold" text-anchor="middle" dy="0.3em">3</text>
<text x="303.0" y="331.0" font-size="17.0" fill="#666666" font-family="'Helvetica Neue', Helvetica, Arial, sans-serif" font-weight="bold" dy="0.3em" class="nf-metro-section-label">Organellar assembly</text>
<path d="M334.0,421.0 L334.0,421.0 Q344.0,421.0,350.29801958421217,413.23244251280494 L367.70198041578783,391.76755748719506 Q374.0,384.0,384.0,384.0 L466.0,384.0" stroke="#3d95fd" stroke-width="4.0" fill="none" stroke-linecap="round" stroke-linejoin="round" />
<path d="M334.0,421.0 L466.0,421.0" stroke="#3d95fd" stroke-width="4.0" stroke-linecap="round" />
<path d="M276.0,381.0 L466.0,381.0" stroke="#24B064" stroke-width="4.0" stroke-linecap="round" />
<path d="M983.0,164.0 L1079.0,164.0" stroke="#FA6863" stroke-width="4.0" stroke-linecap="round" />
<path d="M1079.0,164.0 L1087.7611052384216,164.0 Q1097.7611052384216,164.0,1103.6662051822636,155.9296967434157 L1121.8560052945795,131.0703032565843 Q1127.7611052384216,123.0,1137.7611052384216,123.0 L1175.0,123.0" stroke="#FA6863" stroke-width="4.0" fill="none" stroke-linecap="round" stroke-linejoin="round" />
<path d="M1079.0,164.0 L1175.0,164.0" stroke="#FA6863" stroke-width="4.0" stroke-linecap="round" />
<path d="M1079.0,164.0 L1086.2388947615784,164.0 Q1096.2388947615784,164.0,1102.1439947054205,172.0703032565843 L1120.3337948177364,196.9296967434157 Q1126.2388947615784,205.0,1136.2388947615784,205.0 L1175.0,205.0" stroke="#FA6863" stroke-width="4.0" fill="none" stroke-linecap="round" stroke-linejoin="round" />
<path d="M80.0,161.0 L104.5,161.0 Q114.5,161.0,121.00791373455968,153.40743397634702 L137.99208626544032,133.59256602365298 Q144.5,126.0,154.5,126.0 L176.0,126.0" stroke="#FA6863" stroke-width="4.0" fill="none" stroke-linecap="round" stroke-linejoin="round" />
<path d="M624.0,161.0 L644.0,161.0 Q654.0,161.0,660.1964428857902,153.15117234466572 L677.8035571142098,130.84882765533428 Q684.0,123.0,694.0,123.0 L729.0,123.0" stroke="#EB7AEB" stroke-width="4.0" fill="none" stroke-linecap="round" stroke-linejoin="round" />
<path d="M983.0,161.0 L1079.0,161.0" stroke="#24B064" stroke-width="4.0" stroke-linecap="round" />
<path d="M1079.0,161.0 L1086.2388947615784,161.0 Q1096.2388947615784,161.0,1102.1439947054205,152.9296967434157 L1120.3337948177364,128.0703032565843 Q1126.2388947615784,120.0,1136.2388947615784,120.0 L1175.0,120.0" stroke="#24B064" stroke-width="4.0" fill="none" stroke-linecap="round" stroke-linejoin="round" />
<path d="M1079.0,161.0 L1175.0,161.0" stroke="#24B064" stroke-width="4.0" stroke-linecap="round" />
<path d="M1079.0,161.0 L1087.7611052384216,161.0 Q1097.7611052384216,161.0,1103.6662051822636,169.0703032565843 L1121.8560052945795,193.9296967434157 Q1127.7611052384216,202.0,1137.7611052384216,202.0 L1175.0,202.0" stroke="#24B064" stroke-width="4.0" fill="none" stroke-linecap="round" stroke-linejoin="round" />
<path d="M1325.0,161.0 L1351.0,161.0 Q1361.0,161.0,1366.905099943842,152.9296967434157 L1385.094900056158,128.0703032565843 Q1391.0,120.0,1401.0,120.0 L1421.0,120.0" stroke="#24B064" stroke-width="4.0" fill="none" stroke-linecap="round" stroke-linejoin="round" />
<path d="M1325.0,161.0 L1421.0,161.0" stroke="#24B064" stroke-width="4.0" stroke-linecap="round" />
<path d="M1325.0,161.0 L1351.0,161.0 Q1361.0,161.0,1366.905099943842,169.0703032565843 L1385.094900056158,193.9296967434157 Q1391.0,202.0,1401.0,202.0 L1421.0,202.0" stroke="#24B064" stroke-width="4.0" fill="none" stroke-linecap="round" stroke-linejoin="round" />
<path d="M1275.0,161.0 L1325.0,161.0" stroke="#24B064" stroke-width="4.0" stroke-linecap="round" />
<path d="M1079.0,161.0 L1225.0,161.0" stroke="#24B064" stroke-width="4.0" stroke-linecap="round" />
<path d="M1225.0,161.0 L1275.0,161.0" stroke="#24B064" stroke-width="4.0" stroke-linecap="round" />
<path d="M176.0,126.0 L226.0,126.0" stroke="#FA6863" stroke-width="4.0" stroke-linecap="round" />
<path d="M226.0,126.0 L236.0,126.0" stroke="#FA6863" stroke-width="4.0" stroke-linecap="round" />
<path d="M236.0,126.0 L236.0,126.0 Q246.0,126.0,246.0,136.0 L246.0,211.0 Q246.0,224.0,259.0,224.0 L871.0,224.0 Q884.0,224.0,884.0,211.0 L884.0,133.0 Q884.0,123.0,894.0,123.0 L897.0,123.0" stroke="#FA6863" stroke-width="4.0" fill="none" stroke-linecap="round" stroke-linejoin="round" />
<path d="M80.0,123.0 L176.0,123.0" stroke="#3d95fd" stroke-width="4.0" stroke-linecap="round" />
<path d="M334.0,123.0 L394.0,123.0" stroke="#3d95fd" stroke-width="4.0" stroke-linecap="round" />
<path d="M729.0,123.0 L789.0,123.0" stroke="#EB7AEB" stroke-width="4.0" stroke-linecap="round" />
<path d="M983.0,123.0 L1020.2388947615784,123.0 Q1030.2388947615784,123.0,1036.1439947054205,131.0703032565843 L1054.3337948177364,155.9296967434157 Q1060.2388947615784,164.0,1070.2388947615784,164.0 L1079.0,164.0" stroke="#FA6863" stroke-width="4.0" fill="none" stroke-linecap="round" stroke-linejoin="round" />
<path d="M176.0,123.0 L226.0,123.0" stroke="#3d95fd" stroke-width="4.0" stroke-linecap="round" />
<path d="M284.0,123.0 L334.0,123.0" stroke="#3d95fd" stroke-width="4.0" stroke-linecap="round" />
<path d="M897.0,123.0 L983.0,123.0" stroke="#FA6863" stroke-width="4.0" stroke-linecap="round" />
<path d="M897.0,123.0 L901.2388947615784,123.0 Q911.2388947615784,123.0,917.1439947054206,131.0703032565843 L935.3337948177362,155.9296967434157 Q941.2388947615784,164.0,951.2388947615784,164.0 L983.0,164.0" stroke="#FA6863" stroke-width="4.0" fill="none" stroke-linecap="round" stroke-linejoin="round" />
<path d="M226.0,123.0 L236.0,123.0" stroke="#3d95fd" stroke-width="4.0" stroke-linecap="round" />
<path d="M236.0,123.0 L284.0,123.0" stroke="#3d95fd" stroke-width="4.0" stroke-linecap="round" />
<path d="M334.0,120.0 L394.0,120.0" stroke="#24B064" stroke-width="4.0" stroke-linecap="round" />
<path d="M729.0,120.0 L789.0,120.0" stroke="#24B064" stroke-width="4.0" stroke-linecap="round" />
<path d="M983.0,120.0 L1021.7611052384216,120.0 Q1031.7611052384216,120.0,1037.6662051822636,128.0703032565843 L1055.8560052945795,152.9296967434157 Q1061.7611052384216,161.0,1071.7611052384216,161.0 L1079.0,161.0" stroke="#24B064" stroke-width="4.0" fill="none" stroke-linecap="round" stroke-linejoin="round" />
<path d="M176.0,120.0 L226.0,120.0" stroke="#24B064" stroke-width="4.0" stroke-linecap="round" />
<path d="M284.0,120.0 L334.0,120.0" stroke="#24B064" stroke-width="4.0" stroke-linecap="round" />
<path d="M566.0,120.0 L729.0,120.0" stroke="#24B064" stroke-width="4.0" stroke-linecap="round" />
<path d="M897.0,120.0 L983.0,120.0" stroke="#24B064" stroke-width="4.0" stroke-linecap="round" />
<path d="M897.0,120.0 L902.7611052384216,120.0 Q912.7611052384216,120.0,918.6662051822638,128.0703032565843 L936.8560052945794,152.9296967434157 Q942.7611052384216,161.0,952.7611052384216,161.0 L983.0,161.0" stroke="#24B064" stroke-width="4.0" fill="none" stroke-linecap="round" stroke-linejoin="round" />
<path d="M394.0,120.0 L444.0,120.0" stroke="#24B064" stroke-width="4.0" stroke-linecap="round" />
<path d="M789.0,120.0 L839.0,120.0" stroke="#24B064" stroke-width="4.0" stroke-linecap="round" />
<path d="M226.0,120.0 L236.0,120.0" stroke="#24B064" stroke-width="4.0" stroke-linecap="round" />
<path d="M236.0,120.0 L284.0,120.0" stroke="#24B064" stroke-width="4.0" stroke-linecap="round" />
<path d="M236.0,120.0 L236.0,120.0 Q252.0,120.0,252.0,136.0 L252.0,371.0 Q252.0,381.0,262.0,381.0 L276.0,381.0" stroke="#24B064" stroke-width="4.0" fill="none" stroke-linecap="round" stroke-linejoin="round" />
<path d="M444.0,120.0 L454.0,120.0" stroke="#24B064" stroke-width="4.0" stroke-linecap="round" />
<path d="M839.0,120.0 L849.0,120.0" stroke="#24B064" stroke-width="4.0" stroke-linecap="round" />
<path d="M236.0,120.0 L236.0,120.0 Q252.0,120.0,252.0,136.0 L252.0,211.0 Q252.0,221.0,262.0,221.0 L871.0,221.0 Q881.0,221.0,881.0,211.0 L881.0,133.0 Q881.0,120.0,894.0,120.0 L897.0,120.0" stroke="#24B064" stroke-width="4.0" fill="none" stroke-linecap="round" stroke-linejoin="round" />
<path d="M454.0,120.0 L526.0,120.0 Q536.0,120.0,536.0,130.0 L536.0,211.0 Q536.0,221.0,546.0,221.0 L556.0,221.0" stroke="#24B064" stroke-width="4.0" fill="none" stroke-linecap="round" stroke-linejoin="round" />
<path d="M849.0,120.0 L859.0,120.0" stroke="#24B064" stroke-width="4.0" stroke-linecap="round" />
<path d="M859.0,120.0 L897.0,120.0" stroke="#24B064" stroke-width="4.0" stroke-linecap="round" />
<path d="M236.0,120.0 L236.0,120.0 Q252.0,120.0,252.0,136.0 L252.0,170.0 Q252.0,180.0,262.0,180.0 L544.0,180.0 Q554.0,180.0,554.0,170.0 L554.0,130.0 Q554.0,120.0,564.0,120.0 L566.0,120.0" stroke="#24B064" stroke-width="4.0" fill="none" stroke-linecap="round" stroke-linejoin="round" />
<path d="M454.0,120.0 L464.0,120.0" stroke="#24B064" stroke-width="4.0" stroke-linecap="round" />
<path d="M464.0,120.0 L566.0,120.0" stroke="#24B064" stroke-width="4.0" stroke-linecap="round" />
<path d="M236.0,120.0 L236.0,120.0 Q252.0,120.0,252.0,136.0 L252.0,252.0 Q252.0,262.0,262.0,262.0 L1253.0,262.0 Q1263.0,262.0,1263.0,252.0 L1263.0,171.0 Q1263.0,161.0,1273.0,161.0 L1275.0,161.0" stroke="#24B064" stroke-width="4.0" fill="none" stroke-linecap="round" stroke-linejoin="round" />
<path d="M454.0,120.0 L526.0,120.0 Q536.0,120.0,536.0,130.0 L536.0,252.0 Q536.0,262.0,546.0,262.0 L556.0,262.0" stroke="#24B064" stroke-width="4.0" fill="none" stroke-linecap="round" stroke-linejoin="round" />
<path d="M849.0,120.0 L849.0,120.0 Q859.0,120.0,859.0,130.0 L859.0,252.0 Q859.0,262.0,869.0,262.0 L879.0,262.0" stroke="#24B064" stroke-width="4.0" fill="none" stroke-linecap="round" stroke-linejoin="round" />
<rect x="74.0" y="117.0" width="12.0" height="12.0" fill="#ffffff" stroke="#333333" stroke-width="2.0" />
<path d="M42.0,107.0 L60.0,107.0 L68.0,115.0 L68.0,137.0 Q68.0,139.0,66.0,139.0 L42.0,139.0 Q40.0,139.0,40.0,137.0 L40.0,109.0 Q40.0,107.0,42.0,107.0 Z" fill="#ffffff" stroke="#333333" stroke-width="1.5" stroke-linejoin="round" />
<path d="M60.0,107.0 L60.0,115.0 L68.0,115.0 Z" fill="#333333" opacity="0.15" stroke="none" />
<path d="M60.0,107.0 L60.0,115.0 L68.0,115.0" fill="none" stroke="#333333" stroke-width="0.8999999999999999" />
<text x="54.0" y="124.2" font-size="7.5" fill="#000000" font-family="'Helvetica Neue', Helvetica, Arial, sans-serif" font-weight="bold" text-anchor="middle" dy="0.3em">FASTX</text>
<rect x="74.0" y="155.0" width="12.0" height="12.0" fill="#ffffff" stroke="#333333" stroke-width="2.0" />
<path d="M42.0,145.0 L60.0,145.0 L68.0,153.0 L68.0,175.0 Q68.0,177.0,66.0,177.0 L42.0,177.0 Q40.0,177.0,40.0,175.0 L40.0,147.0 Q40.0,145.0,42.0,145.0 Z" fill="#ffffff" stroke="#333333" stroke-width="1.5" stroke-linejoin="round" />
<path d="M60.0,145.0 L60.0,153.0 L68.0,153.0 Z" fill="#333333" opacity="0.15" stroke="none" />
<path d="M60.0,145.0 L60.0,153.0 L68.0,153.0" fill="none" stroke="#333333" stroke-width="0.8999999999999999" />
<text x="54.0" y="162.2" font-size="7.5" fill="#000000" font-family="'Helvetica Neue', Helvetica, Arial, sans-serif" font-weight="bold" text-anchor="middle" dy="0.3em">CRAM</text>
<rect x="170.0" y="114.0" width="12.0" height="18.0" rx="6.0" ry="6.0" fill="#ffffff" stroke="#333333" stroke-width="2.0" />
<rect x="328.0" y="114.0" width="12.0" height="15.0" rx="6.0" ry="6.0" fill="#ffffff" stroke="#333333" stroke-width="2.0" />
<rect x="388.0" y="114.0" width="12.0" height="15.0" rx="6.0" ry="6.0" fill="#ffffff" stroke="#333333" stroke-width="2.0" />
<rect x="618.0" y="155.0" width="12.0" height="12.0" fill="#ffffff" stroke="#333333" stroke-width="2.0" />
<path d="M586.0,145.0 L604.0,145.0 L612.0,153.0 L612.0,175.0 Q612.0,177.0,610.0,177.0 L586.0,177.0 Q584.0,177.0,584.0,175.0 L584.0,147.0 Q584.0,145.0,586.0,145.0 Z" fill="#ffffff" stroke="#333333" stroke-width="1.5" stroke-linejoin="round" />
<path d="M604.0,145.0 L604.0,153.0 L612.0,153.0 Z" fill="#333333" opacity="0.15" stroke="none" />
<path d="M604.0,145.0 L604.0,153.0 L612.0,153.0" fill="none" stroke="#333333" stroke-width="0.8999999999999999" />
<text x="598.0" y="162.2" font-size="7.5" fill="#000000" font-family="'Helvetica Neue', Helvetica, Arial, sans-serif" font-weight="bold" text-anchor="middle" dy="0.3em">FASTQ</text>
<rect x="723.0" y="114.0" width="12.0" height="15.0" rx="6.0" ry="6.0" fill="#ffffff" stroke="#333333" stroke-width="2.0" />
<rect x="783.0" y="114.0" width="12.0" height="15.0" rx="6.0" ry="6.0" fill="#ffffff" stroke="#333333" stroke-width="2.0" />
<rect x="977.0" y="114.0" width="12.0" height="15.0" rx="6.0" ry="6.0" fill="#ffffff" stroke="#333333" stroke-width="2.0" />
<rect x="977.0" y="155.0" width="12.0" height="15.0" rx="6.0" ry="6.0" fill="#ffffff" stroke="#333333" stroke-width="2.0" />
<rect x="1073.0" y="155.0" width="12.0" height="15.0" rx="6.0" ry="6.0" fill="#ffffff" stroke="#333333" stroke-width="2.0" />
<rect x="1169.0" y="114.0" width="12.0" height="15.0" rx="6.0" ry="6.0" fill="#ffffff" stroke="#333333" stroke-width="2.0" />
<rect x="1169.0" y="155.0" width="12.0" height="15.0" rx="6.0" ry="6.0" fill="#ffffff" stroke="#333333" stroke-width="2.0" />
<rect x="1169.0" y="196.0" width="12.0" height="15.0" rx="6.0" ry="6.0" fill="#ffffff" stroke="#333333" stroke-width="2.0" />
<rect x="1319.0" y="155.0" width="12.0" height="12.0" rx="6.0" ry="6.0" fill="#ffffff" stroke="#333333" stroke-width="2.0" />
<rect x="1415.0" y="114.0" width="12.0" height="12.0" rx="6.0" ry="6.0" fill="#ffffff" stroke="#333333" stroke-width="2.0" />
<rect x="1415.0" y="155.0" width="12.0" height="12.0" rx="6.0" ry="6.0" fill="#ffffff" stroke="#333333" stroke-width="2.0" />
<rect x="1415.0" y="196.0" width="12.0" height="12.0" rx="6.0" ry="6.0" fill="#ffffff" stroke="#333333" stroke-width="2.0" />
<rect x="328.0" y="415.0" width="12.0" height="12.0" fill="#ffffff" stroke="#333333" stroke-width="2.0" />
<path d="M296.0,405.0 L314.0,405.0 L322.0,413.0 L322.0,435.0 Q322.0,437.0,320.0,437.0 L296.0,437.0 Q294.0,437.0,294.0,435.0 L294.0,407.0 Q294.0,405.0,296.0,405.0 Z" fill="#ffffff" stroke="#333333" stroke-width="1.5" stroke-linejoin="round" />
<path d="M314.0,405.0 L314.0,413.0 L322.0,413.0 Z" fill="#333333" opacity="0.15" stroke="none" />
<path d="M314.0,405.0 L314.0,413.0 L322.0,413.0" fill="none" stroke="#333333" stroke-width="0.8999999999999999" />
<text x="308.0" y="422.2" font-size="7.5" fill="#000000" font-family="'Helvetica Neue', Helvetica, Arial, sans-serif" font-weight="bold" text-anchor="middle" dy="0.3em">FASTX</text>
<rect x="460.0" y="375.0" width="12.0" height="15.0" rx="6.0" ry="6.0" fill="#ffffff" stroke="#333333" stroke-width="2.0" />
<rect x="460.0" y="415.0" width="12.0" height="12.0" rx="6.0" ry="6.0" fill="#ffffff" stroke="#333333" stroke-width="2.0" />
<text x="983.0" y="106.0" font-size="14.0" fill="#333333" font-family="'Helvetica Neue', Helvetica, Arial, sans-serif" font-weight="bold" text-anchor="middle" dominant-baseline="auto">bwa-mem2</text>
<text x="334.0" y="134.0" font-size="14.0" fill="#333333" font-family="'Helvetica Neue', Helvetica, Arial, sans-serif" font-weight="bold" text-anchor="middle" dominant-baseline="hanging">minimap2</text>
<text x="1325.0" y="172.0" font-size="14.0" fill="#333333" font-family="'Helvetica Neue', Helvetica, Arial, sans-serif" font-weight="bold" text-anchor="middle" dominant-baseline="hanging">asmstats</text>
<text x="983.0" y="148.4" font-size="14.0" fill="#333333" font-family="'Helvetica Neue', Helvetica, Arial, sans-serif" font-weight="bold" text-anchor="middle" dominant-baseline="auto">minimap2</text>
<text x="1421.0" y="106.0" font-size="14.0" fill="#333333" font-family="'Helvetica Neue', Helvetica, Arial, sans-serif" font-weight="bold" text-anchor="middle" dominant-baseline="auto">GFAStats</text>
<text x="394.0" y="106.0" font-size="14.0" fill="#333333" font-family="'Helvetica Neue', Helvetica, Arial, sans-serif" font-weight="bold" text-anchor="middle" dominant-baseline="auto">purge_dups</text>
<text x="729.0" y="106.0" font-size="14.0" fill="#333333" font-family="'Helvetica Neue', Helvetica, Arial, sans-serif" font-weight="bold" text-anchor="middle" dominant-baseline="auto">Longranger</text>
<text x="1079.0" y="175.0" font-size="14.0" fill="#333333" font-family="'Helvetica Neue', Helvetica, Arial, sans-serif" font-weight="bold" text-anchor="middle" dominant-baseline="hanging">YaHS</text>
<text x="1421.0" y="147.2" font-size="14.0" fill="#333333" font-family="'Helvetica Neue', Helvetica, Arial, sans-serif" font-weight="bold" text-anchor="middle" dominant-baseline="auto">BUSCO</text>
<text x="466.0" y="367.0" font-size="14.0" fill="#333333" font-family="'Helvetica Neue', Helvetica, Arial, sans-serif" font-weight="bold" text-anchor="middle" dominant-baseline="auto">MitoHiFi</text>
<text x="176.0" y="106.0" font-size="14.0" fill="#333333" font-family="'Helvetica Neue', Helvetica, Arial, sans-serif" font-weight="bold" text-anchor="middle" dominant-baseline="auto">hifiasm</text>
<text x="466.0" y="432.0" font-size="14.0" fill="#333333" font-family="'Helvetica Neue', Helvetica, Arial, sans-serif" font-weight="bold" text-anchor="middle" dominant-baseline="hanging">oatk</text>
<text x="1421.0" y="213.0" font-size="14.0" fill="#333333" font-family="'Helvetica Neue', Helvetica, Arial, sans-serif" font-weight="bold" text-anchor="middle" dominant-baseline="hanging">MerquryFK</text>
<text x="1175.0" y="106.0" font-size="14.0" fill="#333333" font-family="'Helvetica Neue', Helvetica, Arial, sans-serif" font-weight="bold" text-anchor="middle" dominant-baseline="auto">PretextMap</text>
<text x="789.0" y="134.0" font-size="14.0" fill="#333333" font-family="'Helvetica Neue', Helvetica, Arial, sans-serif" font-weight="bold" text-anchor="middle" dominant-baseline="hanging">FreeBayes</text>
<text x="1175.0" y="148.4" font-size="14.0" fill="#333333" font-family="'Helvetica Neue', Helvetica, Arial, sans-serif" font-weight="bold" text-anchor="middle" dominant-baseline="auto">Juicer</text>
<text x="1175.0" y="216.0" font-size="14.0" fill="#333333" font-family="'Helvetica Neue', Helvetica, Arial, sans-serif" font-weight="bold" text-anchor="middle" dominant-baseline="hanging">Cooler</text>
<rect x="22.0" y="336.0" width="148.0" height="120.0" rx="6" ry="6" fill="rgba(255, 255, 255, 0.8)" />
<path d="M34.0,360.0 L58.0,360.0" stroke="#24B064" stroke-width="4.0" stroke-linecap="round" />
<text x="70.0" y="360.0" font-size="16.0" fill="#333333" font-family="'Helvetica Neue', Helvetica, Arial, sans-serif" dy="0.3em">Assembly</text>
<path d="M34.0,384.0 L58.0,384.0" stroke="#3d95fd" stroke-width="4.0" stroke-linecap="round" />
<text x="70.0" y="384.0" font-size="16.0" fill="#333333" font-family="'Helvetica Neue', Helvetica, Arial, sans-serif" dy="0.3em">Long reads</text>
<path d="M34.0,408.0 L58.0,408.0" stroke="#FA6863" stroke-width="4.0" stroke-linecap="round" />
<text x="70.0" y="408.0" font-size="16.0" fill="#333333" font-family="'Helvetica Neue', Helvetica, Arial, sans-serif" dy="0.3em">Hi-C reads</text>
<path d="M34.0,432.0 L58.0,432.0" stroke="#EB7AEB" stroke-width="4.0" stroke-linecap="round" />
<text x="70.0" y="432.0" font-size="16.0" fill="#333333" font-family="'Helvetica Neue', Helvetica, Arial, sans-serif" dy="0.3em">10X reads</text>
<text x="1501.0" y="472.0" font-size="8" fill="rgba(150, 150, 150, 0.6)" font-family="'Helvetica Neue', Helvetica, Arial, sans-serif" text-anchor="end">created with nf-metro v0.6.1</text>
</svg>
